<?xml version="1.0" encoding="utf-8"?>
<!-- Generator: Adobe Illustrator 22.0.1, SVG Export Plug-In . SVG Version: 6.00 Build 0)  -->
<svg fill="#000000" width="52" height="52" version="1.1" id="lni_lni-camera-alt" xmlns="http://www.w3.org/2000/svg" xmlns:xlink="http://www.w3.org/1999/xlink" x="0px"
	 y="0px" viewBox="0 0 64 64" style="enable-background:new 0 0 64 64;" xml:space="preserve">
<g>
	<path d="M56.7,17.9v-3.4c0-1.1-0.9-2-2-2h-8.5c-1.1,0-2,0.9-2,2v3.3h-5.9v-1.6c0-3.5-2.8-6.3-6.3-6.3H21.5c-3.5,0-6.3,2.8-6.3,6.3
		v1.6H8.3c-3.5,0-6.3,2.8-6.3,6.3v23.7c0,3.5,2.8,6.3,6.3,6.3h47.5c3.5,0,6.3-2.8,6.3-6.3V24.1C62,21,59.7,18.4,56.7,17.9z
		 M46.2,14.5h8.5v3.3h-8.5V14.5z M60,47.8c0,2.4-1.9,4.3-4.3,4.3H8.3c-2.4,0-4.3-1.9-4.3-4.3V24.1c0-2.4,1.9-4.3,4.3-4.3h7.9
		c0.6,0,1-0.4,1-1v-2.6c0-2.4,1.9-4.3,4.3-4.3H32c2.4,0,4.3,1.9,4.3,4.3v2.6c0,0.6,0.4,1,1,1h7.9h10.5c2.4,0,4.3,1.9,4.3,4.3V47.8z"
		/>
	<path d="M28,23.1c-5.6,0-10.2,4.6-10.2,10.2S22.4,43.5,28,43.5S38.3,39,38.3,33.3S33.7,23.1,28,23.1z M28,41.5
		c-4.5,0-8.2-3.7-8.2-8.2c0-4.5,3.7-8.2,8.2-8.2s8.2,3.7,8.2,8.2C36.3,37.9,32.6,41.5,28,41.5z"/>
</g>
</svg>
