<?xml version="1.0" encoding="utf-8"?>
<!-- Generator: Adobe Illustrator 22.0.0, SVG Export Plug-In . SVG Version: 6.00 Build 0)  -->
<svg fill="#000000" width="52" height="52" version="1.1" id="lni_lni-check-circle" xmlns="http://www.w3.org/2000/svg" xmlns:xlink="http://www.w3.org/1999/xlink"
	 x="0px" y="0px" viewBox="0 0 64 64" style="enable-background:new 0 0 64 64;" xml:space="preserve">
<g>
	<path d="M32,2C15.5,2,2,15.5,2,32s13.5,30,30,30s30-13.5,30-30S48.5,2,32,2z M32,60C16.6,60,4,47.4,4,32S16.6,4,32,4s28,12.6,28,28
		S47.4,60,32,60z"/>
	<path d="M41.9,23.4L28.6,36.2L22,29.9c-0.4-0.4-1-0.4-1.4,0c-0.4,0.4-0.4,1,0,1.4l6.6,6.4c0.4,0.4,0.8,0.5,1.3,0.5
		c0.5,0,1-0.2,1.3-0.5l13.3-13c0.4-0.4,0.4-1,0-1.4C42.9,23,42.3,23,41.9,23.4z"/>
</g>
</svg>
