<?xml version="1.0" encoding="utf-8"?>
<!-- Generator: Adobe Illustrator 22.0.1, SVG Export Plug-In . SVG Version: 6.00 Build 0)  -->
<svg fill="#000000" width="52" height="52" version="1.1" id="lni_lni-user-edit" xmlns="http://www.w3.org/2000/svg" xmlns:xlink="http://www.w3.org/1999/xlink" x="0px"
	 y="0px" viewBox="0 0 64 64" style="enable-background:new 0 0 64 64;" xml:space="preserve">
<g>
	<path d="M59.6,32.1c-0.8-0.5-1.9-0.3-2.4,0.5L46,50.4c-0.1,0.1-0.2,0.3-0.3,0.4l0,0c-0.1,0.1-0.2,0.3-0.2,0.5L41.4,61l7-7.9
		c0.1-0.1,0.2-0.2,0.3-0.4l11.5-18.2C60.7,33.7,60.4,32.6,59.6,32.1z"/>
	<path d="M25.8,27.1c5,0,9.6,2.3,13.1,6.3c1.8,2.1,3.2,4.7,4.2,7.6c0.3,0.9,1.3,1.4,2.2,1.1c0.9-0.3,1.4-1.3,1.1-2.2
		c-1.1-3.3-2.7-6.2-4.8-8.7c-3-3.5-6.8-5.9-10.9-7c4.2-1.9,7.1-6.1,7.1-11c0-6.6-5.4-12-12-12s-12,5.4-12,12c0,4.9,2.9,9.1,7.1,11
		c-4.2,1-7.9,3.4-10.9,7C6,36,3.7,42.6,3.6,49.9c0,0.7,0.4,1.3,1,1.6c2.5,1.3,11.6,5.4,21.3,5.4c3.6,0,7.3-0.5,11-1.4
		c0.9-0.2,1.5-1.2,1.3-2.1s-1.2-1.5-2.1-1.3c-3.4,0.9-6.8,1.3-10.1,1.3c-7.9,0-15.4-3-18.7-4.5c0.3-6,2.3-11.5,5.6-15.4
		C16.2,29.4,20.8,27.1,25.8,27.1z M17.3,13.2c0-4.7,3.8-8.5,8.5-8.5s8.5,3.8,8.5,8.5s-3.8,8.5-8.5,8.5S17.3,17.9,17.3,13.2z"/>
</g>
</svg>
