<?xml version="1.0" encoding="utf-8"?>
<!-- Generator: Adobe Illustrator 22.0.1, SVG Export Plug-In . SVG Version: 6.00 Build 0)  -->
<svg fill="#000000" width="52" height="52" version="1.1" id="lni_lni-user-star" xmlns="http://www.w3.org/2000/svg" xmlns:xlink="http://www.w3.org/1999/xlink" x="0px"
	 y="0px" viewBox="0 0 64 64" style="enable-background:new 0 0 64 64;" xml:space="preserve">
<g>
	<path d="M33.2,56.2c-3.1,0.7-6.2,1.1-9.2,1.1c-8.7,0-16.9-3.5-19.9-5c0.2-6.6,2.3-12.5,5.9-16.8c3.7-4.4,8.7-6.8,14-6.8
		c5.4,0,10.3,2.4,14,6.8c0.2,0.2,0.4,0.5,0.5,0.7c0.3,0.5,0.9,0.6,1.4,0.3c0.5-0.3,0.6-0.9,0.3-1.4c-0.2-0.3-0.4-0.6-0.7-0.9
		c-3.8-4.5-8.9-7.1-14.4-7.4c5.8-0.6,10.4-5.5,10.4-11.4c0-6.3-5.2-11.5-11.5-11.5c-6.3,0-11.5,5.2-11.5,11.5
		c0,6,4.6,10.9,10.4,11.4c-5.5,0.3-10.6,2.9-14.4,7.4C4.4,39.1,2.1,45.7,2,53c0,0.4,0.2,0.7,0.6,0.9c2.6,1.3,11.7,5.4,21.4,5.4
		c3.1,0,6.3-0.4,9.6-1.1c0.5-0.1,0.9-0.7,0.8-1.2C34.2,56.5,33.7,56.1,33.2,56.2z M14.5,15.4c0-5.2,4.3-9.5,9.5-9.5s9.5,4.3,9.5,9.5
		s-4.3,9.5-9.5,9.5S14.5,20.7,14.5,15.4z"/>
	<path d="M61.9,43.6c-0.4-1.2-1.5-2-2.8-2h-5.5c-0.4,0-0.7-0.2-0.8-0.6l-1.7-5.2c-0.4-1.2-1.5-2-2.8-2s-2.4,0.8-2.8,2L43.9,41
		c-0.1,0.4-0.5,0.6-0.8,0.6h-5.5c-1.3,0-2.4,0.8-2.8,2c-0.4,1.2,0,2.5,1.1,3.2l4.4,3.2c0.3,0.2,0.4,0.6,0.3,1L39,56.3
		c-0.4,1.2,0,2.5,1.1,3.2c0.5,0.4,1.1,0.6,1.7,0.6c0.6,0,1.2-0.2,1.7-0.6l4.4-3.2c0.3-0.2,0.7-0.2,1.1,0l4.4,3.2
		c1,0.8,2.4,0.8,3.4,0c1-0.8,1.4-2,1.1-3.2l-1.7-5.2c-0.1-0.4,0-0.8,0.3-1l4.4-3.2C61.8,46.1,62.3,44.8,61.9,43.6z M59.6,45.3
		l-4.4,3.2c-1,0.7-1.4,2-1.1,3.2l1.7,5.2c0.2,0.6-0.2,0.9-0.3,1c-0.1,0.1-0.6,0.4-1,0l-4.4-3.2c-1-0.7-2.4-0.7-3.4,0l-4.4,3.2
		c-0.5,0.4-0.9,0.1-1,0s-0.5-0.4-0.3-1l1.7-5.2c0.4-1.2,0-2.5-1.1-3.2l-4.4-3.2c-0.5-0.4-0.4-0.9-0.3-1c0-0.1,0.2-0.6,0.9-0.6h5.5
		c1.3,0,2.4-0.8,2.8-2l1.7-5.2c0.2-0.6,0.7-0.6,0.8-0.6s0.7,0,0.8,0.6l1.7,5.2c0.4,1.2,1.5,2,2.8,2h5.5c0.6,0,0.8,0.5,0.9,0.6
		C60,44.4,60.1,44.9,59.6,45.3z"/>
</g>
</svg>
